<svg xmlns="http://www.w3.org/2000/svg" width="139" height="256"><symbol id="icon-facebook" viewBox="0 0 32 32"><path d="M16 32c8.837 0 16-7.163 16-16S24.837 0 16 0 0 7.163 0 16s7.163 16 16 16z"/><path fill="#fff" d="M20.446 15.982h-2.61v9.619h-3.955v-9.619H12v-3.38h1.881v-2.187c0-1.564.739-4.014 3.99-4.014l2.929.012v3.281h-2.125c-.349 0-.839.175-.839.921v1.989h2.955l-.346 3.377z"/></symbol><symbol id="icon-chevron" viewBox="0 0 32 32"><path d="M9.2 28.3q-.367-.4-.383-.933t.383-.933l10.5-10.5-10.5-10.5q-.367-.367-.383-.917t.383-.95q.367-.4.917-.417t.95.383l11.7 11.7q.167.167.233.333t.067.367T23 16.3t-.233.333l-11.7 11.7q-.367.367-.917.367t-.95-.4z"/></symbol><symbol id="icon-telegram" viewBox="0 0 32 32"><path d="M32 16c0 8.837-7.163 16-16 16S0 24.837 0 16 7.163 0 16 0s16 7.163 16 16z"/><path fill="#fff" d="m12.867 18.375-.318 4.169c.454 0 .651-.182.887-.401l2.13-1.9 4.415 3.017c.81.421 1.38.199 1.599-.695l2.898-12.672.001-.001c.257-1.117-.433-1.554-1.222-1.28L6.225 14.698c-1.162.421-1.145 1.026-.198 1.3l4.355 1.264 10.115-5.907c.476-.294.909-.131.553.163l-8.182 6.857z"/></symbol><symbol id="icon-github" viewBox="0 0 32 32"><path d="M32 16c0 8.837-7.163 16-16 16S0 24.837 0 16 7.163 0 16 0s16 7.163 16 16z"/><path fill="#fff" d="M16 6.588c-5.169 0-9.412 4.242-9.412 9.412 0 4.411 3.095 8.419 7.206 9.412v-3.114a2.307 2.307 0 0 1-1.197-.03c-.556-.164-1.008-.535-1.344-1.1-.214-.361-.593-.752-.988-.723l-.097-1.099c.855-.073 1.595.521 2.034 1.259.195.328.419.52.708.605.278.082.578.043.926-.08.088-.698.407-.959.648-1.326v-.001c-2.451-.366-3.428-1.666-3.816-2.693-.514-1.363-.238-3.066.671-4.142.018-.021.05-.076.037-.114-.417-1.258.091-2.299.11-2.41.481.142.559-.143 2.089.786l.264.159c.111.066.076.028.186.02A8.031 8.031 0 0 1 16 11.131a8.016 8.016 0 0 1 2.002.285l.086.009c-.007-.001.023-.005.075-.036 1.911-1.157 1.842-.779 2.355-.946.019.111.519 1.169.107 2.411-.056.171 1.657 1.739.708 4.256-.388 1.027-1.365 2.328-3.816 2.693v.001c.314.479.692.734.69 1.722v3.887c4.111-.993 7.206-5 7.206-9.412 0-5.169-4.242-9.412-9.412-9.412z"/></symbol><symbol id="icon-smalldot" viewBox="0 0 139 32"><path d="M85.333 16c0 8.837-7.163 16-16 16s-16-7.163-16-16 7.163-16 16-16 16 7.163 16 16zM32 16c0 8.837-7.163 16-16 16S0 24.837 0 16 7.163 0 16 0s16 7.163 16 16zm106.667 0c0 8.837-7.163 16-16 16s-16-7.163-16-16 7.163-16 16-16 16 7.163 16 16z"/></symbol><symbol id="icon-ellipse" viewBox="0 0 32 32"><path d="M32 16c0 8.837-7.163 16-16 16S0 24.837 0 16 7.163 0 16 0s16 7.163 16 16z"/></symbol><symbol id="icon-dot" viewBox="0 0 256 32"><path d="M144 16c0 8.837-7.163 16-16 16s-16-7.163-16-16 7.163-16 16-16 16 7.163 16 16zM32 16c0 8.837-7.163 16-16 16S0 24.837 0 16 7.163 0 16 0s16 7.163 16 16zm224 0c0 8.837-7.163 16-16 16s-16-7.163-16-16 7.163-16 16-16 16 7.163 16 16z"/></symbol><symbol id="icon-home" viewBox="0 0 35 32"><path d="M32.64 15.401a1.541 1.541 0 0 0-.129-2.225L17.739.426c-.671-.578-1.745-.566-2.402.027L.515 13.856a1.532 1.532 0 0 0-.071 2.222l.372.382c.617.633 1.613.708 2.224.168l1.108-.979v14.326c0 .879.722 1.591 1.612 1.591h5.778c.89 0 1.612-.712 1.612-1.591V19.952h7.37v10.023c-.013.878.624 1.59 1.515 1.59h6.123c.89 0 1.613-.711 1.613-1.59V15.851l.683.592c.377.328 1.168.065 1.767-.586l.42-.455z"/></symbol><symbol id="icon-untitled" viewBox="0 0 43 32"><path d="M32.014 0c1.929 0 3.75.52 5.464 1.561s3.107 2.537 4.179 4.488C42.686 8 43.2 10.298 43.2 12.943s-.643 5.225-1.929 7.74c-.429.911-1.2 2.081-2.314 3.512a63.368 63.368 0 0 1-3.214 3.707L31.693 32 28.8 27.187a22.03 22.03 0 0 0 5.336-4.683c1.543-1.821 2.314-3.491 2.314-5.008 0-.78-.171-1.409-.514-1.886a8.359 8.359 0 0 1-5.014 1.626c-1.329 0-2.593-.412-3.793-1.236a8.555 8.555 0 0 1-2.957-3.122c-.771-1.258-1.157-2.558-1.157-3.902 0-1.518.45-2.97 1.35-4.358a10.222 10.222 0 0 1 3.407-3.382C29.143.412 30.558 0 32.015 0zM8.936 0c1.929 0 3.75.52 5.464 1.561s3.107 2.537 4.179 4.488c1.029 1.951 1.543 4.249 1.543 6.894 0 1.864-.236 3.534-.707 5.008-.471 1.518-1.286 3.1-2.443 4.748-1.114 1.561-2.164 2.862-3.15 3.902-.986 1.084-2.7 2.884-5.143 5.398l-2.893-4.813a22.03 22.03 0 0 0 5.336-4.683c1.543-1.821 2.314-3.491 2.314-5.008 0-.78-.171-1.409-.514-1.886a8.359 8.359 0 0 1-5.014 1.626c-1.329 0-2.593-.412-3.793-1.236a8.555 8.555 0 0 1-2.957-3.122C.387 11.619.001 10.319.001 8.975c0-1.518.429-2.97 1.286-4.358S3.28 2.102 4.694 1.235C6.065.411 7.48-.001 8.937-.001z"/></symbol><symbol id="icon-arrow" viewBox="0 0 32 32"><path d="m19.414 27.414 10-10a2 2 0 0 0 0-2.828l-10-10a2 2 0 1 0-2.828 2.828L23.172 14H4a2 2 0 1 0 0 4h19.172l-6.586 6.586c-.39.39-.586.902-.586 1.414s.195 1.024.586 1.414a2 2 0 0 0 2.828 0z"/></symbol><symbol id="icon-close" viewBox="0 0 24 24"><path fill-rule="evenodd" d="M5.47 5.47a.75.75 0 0 1 1.06 0L12 10.94l5.47-5.47a.75.75 0 1 1 1.06 1.06L13.06 12l5.47 5.47a.75.75 0 1 1-1.06 1.06L12 13.06l-5.47 5.47a.75.75 0 0 1-1.06-1.06L10.94 12 5.47 6.53a.75.75 0 0 1 0-1.06z" clip-rule="evenodd"/></symbol><symbol id="icon-x" viewBox="0 0 32 32"><path d="M32 3.223 28.777 0 16 12.777 3.223 0 0 3.223 12.777 16 0 28.777 3.223 32 16 19.223 28.777 32 32 28.777 19.223 16 32 3.223z"/></symbol><symbol id="icon-burger" viewBox="0 0 24 24"><path d="M0 11h24v2H0zm0-9h24v2H0zm0 18h24v2H0z"/></symbol><symbol id="icon-audiobook" viewBox="0 0 57 49"><g clip-path="url('#clip0_13_539')"><path d="M4.523 45.098h18.15a5.54 5.54 0 0 0 5.017 3.17h1.146a5.54 5.54 0 0 0 5.018-3.17h18.16c1.87 0 3.392-1.537 3.392-3.425V8.852c0-1.889-1.521-3.425-3.392-3.425h-1.832v-1.53c0-1.259-1.015-2.283-2.261-2.283H8.605c-1.246 0-2.261 1.024-2.261 2.284v1.53h-1.82c-1.872 0-3.393 1.535-3.393 3.424v32.82c0 1.89 1.521 3.426 3.392 3.426Zm43.396-7.044h-18.52V11.526c4.28.565 7.6 4.263 7.6 8.736v1.03l-.269-.06a1.133 1.133 0 0 0-1.347.87l-1.8 8.27a1.14 1.14 0 0 0 .862 1.358l3.89.865c.2.043.405.065.61.065 1.368 0 2.533-.944 2.83-2.3l1.042-4.782c.343-1.57-.643-3.132-2.203-3.482l-1.354-.302v-1.532c0-5.735-4.33-10.467-9.86-11.043V3.898h18.52l-.001 34.156Zm-10.57-14.347 2.777.618a.633.633 0 0 1 .483.761l-1.042 4.782a.67.67 0 0 1-.753.496l-2.78-.619 1.315-6.038ZM8.605 3.897h18.533v5.32c-5.537.57-9.872 5.306-9.872 11.045v1.532l-1.356.302c-.755.17-1.4.624-1.814 1.28a2.915 2.915 0 0 0-.386 2.2l1.04 4.777a2.913 2.913 0 0 0 2.833 2.307c.204 0 .409-.022.617-.066l3.874-.864c.608-.137.994-.744.86-1.359l-1.8-8.27a1.133 1.133 0 0 0-1.348-.87l-.259.058v-1.027c0-4.477 3.325-8.178 7.61-8.738v26.53H8.606V3.898ZM19.17 23.709l1.316 6.038-2.765.616a.642.642 0 0 1-.76-.49l-1.041-4.79a.63.63 0 0 1 .48-.757l2.77-.617ZM3.392 8.852c0-.63.507-1.142 1.131-1.142h1.821v30.344c0 1.26 1.015 2.283 2.261 2.283h39.316c1.246 0 2.261-1.024 2.261-2.283V7.71h1.832c.624 0 1.131.513 1.131 1.142v32.82c0 .63-.507 1.142-1.13 1.142h-18.93c-.496 0-.935.328-1.08.807a3.3 3.3 0 0 1-3.169 2.363H27.69c-1.46 0-2.732-.946-3.172-2.376a1.132 1.132 0 0 0-1.077-.794H4.523c-.624 0-1.13-.512-1.13-1.141V8.852Z"/></g><defs><clipPath id="clip0_13_539"><path fill="#fff" d="M0 .967h56.537v47.947H0z"/></clipPath></defs></symbol><symbol id="icon-female student" viewBox="0 0 40 49"><g clip-path="url('#clip0_13_530')"><path d="M-.154 48.552h40.177c.199-4.576-.13-12.17-2.946-15.784l-.102-.13-6.156-3.087c.134-.45.2-.863.226-1.166.03-.364-.02-.706-.15-1.016-1.015-2.427-3.164-3.704-4.346-4.249.36-.725.592-1.503.704-2.298a1.974 1.974 0 0 0 1.384-1.425l.719-2.916a1.971 1.971 0 0 0-.227-1.501 1.968 1.968 0 0 0-.44-.501c2.025-4.597-1.368-8.93-1.553-9.16-3.674-3.968-8.316-3.226-8.562-3.182-6.699 1.402-9.284 6.53-7.825 12.545a1.973 1.973 0 0 0-.453 1.799l.722 2.919a1.974 1.974 0 0 0 1.373 1.42 7.506 7.506 0 0 0 1.729 3.834v2.312c-9.614 4.917-3.522 1.78-11.227 5.673-.015.073-3.615 3.894-3.08 15.221l.033.692ZM38.627 47.1h-6.612v-2.774l4.373-10c2.191 3.631 2.272 10.567 2.239 12.774Zm-9.025-18.838c-.255 2.928-1.862 2.043-2.855 4.3-.78-.858-1.015-1.886-.805-2.987.379-2.02-.856-2.62-.55-4.743l.046-.049v-.007c.026-.029.27-.319.34-.41 2.616 1.14 3.876 3.258 3.824 3.896ZM15.568 25.96a7.454 7.454 0 0 0 8.362.112c.168 1.67.82 2.003.589 3.231a5.38 5.38 0 0 0-.08.674l-4.504 5.07-5.757-6.483 1.39-.725v-1.88Zm-1.81-6.205v-7.75c.7-1.294 1.656-2.233 2.843-2.796 3.18 1.798 6.84 4.48 9.296 7.18-.003 3.437.01 3.447-.013 3.73l-.002.017c-.192 3.122-2.761 5.71-6.057 5.71-3.203 0-5.863-2.513-6.055-5.74a4.092 4.092 0 0 1-.012-.35Zm-.897 9.51 7.074 7.966 4.75-5.347c.108.312.26.607.434.892l-5.184 6.476-7.73-9.658.656-.329Zm14.484-10.679v-2.244l.54-.619c.03 1.137.153-.204-.54 2.863Zm-8.503-15.02c.288.017 4.148-.587 7.199 2.703.12.15 2.604 3.347 1.606 6.843-.342-1.556-.937-3.55-1.878-4.5l-1.028 1.022c.929.94 1.539 3.801 1.771 5.285-4.26-4.453-9.756-7.272-9.832-7.32-.275.172-2.601.613-4.29 3.893l-.08.156v2.41l-.214.001c-1.073-5.175.982-9.287 6.746-10.494Zm-6.898 11.988.365 1.48v1.554l-.607-2.456c-.09-.366.182-.505.242-.578Zm-1.065 14.705 9.056 11.314 6.127-7.655c.667.596.987.68 2.4 1.406l-.476-1.615c-.121-.41.358-1.068.647-1.37a4.379 4.379 0 0 0 1.586-1.464l5 2.507-4.653 10.638v3.08H9.303v-3.08L4.649 33.383l6.23-3.124ZM3.48 34.327l4.374 9.998V47.1H1.242c-.033-2.206.049-9.138 2.238-12.772Z"/></g><defs><clipPath id="clip0_13_530"><path fill="#fff" d="M0 .967h39.83v47.947H0z"/></clipPath></defs></symbol><symbol id="icon-group" viewBox="0 0 49 49"><path d="M2.99 19.743v4.243c0 .228.104.442.284.584a16.661 16.661 0 0 0 10.255 3.54 16.79 16.79 0 0 0 3.31-.336 18.044 18.044 0 0 0 7.335 1.546c2.56 0 5.027-.523 7.335-1.546 4.636.935 9.577-.07 13.564-3.204a.744.744 0 0 0 .284-.584v-4.243a1.8 1.8 0 0 0-.862-1.538l-5.801-3.26c1.269-1.609 2.214-3.899 2.379-5.863.481-3.381-2.278-6.962-6.249-6.962-1.67 0-3.257.687-4.421 1.838-.04.04-.087.074-.126.115-.036.037-.065.08-.1.12-.023.025-.043.053-.066.079C28.976 2.205 26.795.927 24.224.927c-.25 0-.494.017-.737.042-.015 0-.028-.008-.043-.008-.138 0-.43.036-.586.08-.023.008-.04.024-.061.032a6.723 6.723 0 0 0-4.52 3.23 6.266 6.266 0 0 0-4.768-2.182c-5.862 0-8.463 6.91-3.836 12.857L3.82 18.224c-.52.329-.83.897-.83 1.52Zm28.505 6.398c-.126.062-.25.127-.377.185l-.003.001a16.522 16.522 0 0 1-6.941 1.507 16.573 16.573 0 0 1-10.012-3.337v-4.3c0-.147.071-.277.153-.332l6.813-3.782c.848.719 1.93 1.246 3.053 1.246 1.08 0 2.248-.535 3.078-1.264l6.73 3.776c.125.08.196.209.196.355v4.3c-.857.643-1.76 1.19-2.69 1.645ZM43.73 19.48a.303.303 0 0 1 .138.264v3.877c-2.953 2.214-6.505 3.218-10.105 2.966a19.793 19.793 0 0 0 1.624-1.139.744.744 0 0 0 .285-.585v-4.666c0-.651-.328-1.251-.915-1.628l-3.576-2.007.87-.481c1.054.859 1.96 1.115 2.772 1.115.994 0 2.04-.488 2.817-1.137l6.09 3.421ZM34.824 3.606c2.071 0 3.89 1.352 4.532 3.21a5.552 5.552 0 0 1-3.355-1.711.744.744 0 0 0-1.182.126 5.524 5.524 0 0 1-3.822 2.636v-.004a7.29 7.29 0 0 0-.049-.978l-.011-.1a8.224 8.224 0 0 0-.182-.912c.844-1.352 2.413-2.267 4.07-2.267Zm-3.99 5.777a6.967 6.967 0 0 0 4.747-2.64c1.15.943 2.61 1.514 4.052 1.583-.01 2.685-2.206 7.383-4.809 7.383-2.005 0-3.718-2.866-4.358-4.852.163-.511.281-1.003.368-1.474Zm.151 5.588-1.329.735-1.341-.753a11.96 11.96 0 0 0 1.344-2.118c.375.79.826 1.514 1.326 2.136Zm-2.005-4.357c-.717 2.137-2.557 5.229-4.8 5.229-2.612 0-4.838-4.292-5.262-7.036.113-.028 3.644.19 6.074-2.998 1.234 1.03 2.898 1.713 4.516 1.78.02.97-.216 2.107-.528 3.025Zm-4.756-8.2c4.17 0 4.964 3.584 5.029 3.658a6.196 6.196 0 0 1-3.845-1.91.745.745 0 0 0-1.184.128 6.11 6.11 0 0 1-3.62 2.799 6.472 6.472 0 0 1-1.75.23c.204-2.73 2.394-4.906 5.37-4.906ZM18.692 12.82c.386.771.844 1.508 1.369 2.155l-1.313.73-1.36-.764a11.6 11.6 0 0 0 1.304-2.12Zm-5.183-9.214c1.687 0 3.233.855 4.094 2.268-.043.15-.16.746-.175.82a5.506 5.506 0 0 1-2.731-1.591.743.743 0 0 0-1.183.129 5.57 5.57 0 0 1-4.766 2.72c.237-2.439 2.277-4.346 4.761-4.346ZM8.814 9.434a7.064 7.064 0 0 0 5.464-2.69 6.94 6.94 0 0 0 3.083 1.44c.043.86.268 1.907.525 2.68-.41 1.257-1.198 2.757-2.176 3.753-.006.006-.014.01-.02.015-.612.644-1.482 1.077-2.166 1.077-2.391 0-4.262-3.758-4.71-6.275Zm-4.337 10.31c0-.113.05-.209.101-.243l6.174-3.422c.37.308.456.343.53.397.727.483 1.393.724 2.301.724.968 0 1.849-.41 2.624-1.04.043-.035.09-.068.132-.102l.881.494-3.67 2.04a1.902 1.902 0 0 0-.876 1.604v4.666a.74.74 0 0 0 .285.584c.475.373 1.091.808 1.624 1.141-3.651.249-7.204-.792-10.106-2.967v-3.877Z"/><path d="M46.888 32.064a3.095 3.095 0 0 0-3.01-.165l-9.18 4.43a3.164 3.164 0 0 0-3.16-3.104l-5.264.002c-2.595-2.254-5.912-3.634-8.928-3.707-2.974-.07-5.643-.09-6.888-.095v-1.502H0V45.18h10.458v-2.066c2.867 1.644 10.408 5.761 13.987 5.761.08 0 .16-.002.236-.006 6.294-.353 21.136-10.786 22.115-11.479a3.115 3.115 0 0 0 1.551-2.69 3.092 3.092 0 0 0-1.46-2.635ZM8.97 43.694H1.488V29.409H8.97v14.285Zm37.06-7.579a.651.651 0 0 0-.065.041c-.154.11-15.421 10.895-21.367 11.229a3.651 3.651 0 0 1-.18.004c-3.14 0-10.792-4.124-13.96-5.995V30.911c1.24.005 3.894.025 6.853.095 2.755.066 5.814 1.38 8.183 3.515l.212.191h5.832a1.68 1.68 0 0 1 1.678 1.675 1.68 1.68 0 0 1-1.678 1.677H20.825v1.486h10.713a3.152 3.152 0 0 0 2.51-1.258l10.476-5.055a1.595 1.595 0 0 1 1.574.086c.484.303.762.805.762 1.376 0 .586-.318 1.128-.83 1.416Zm-21.113-16.97H23.43v1.378h1.487v-1.378Zm0 2.748H23.43v1.377h1.487v-1.377Zm0 2.747H23.43v1.378h1.487V24.64Z"/></symbol><symbol id="icon-open book" viewBox="0 0 69 49"><g clip-path="url('#clip0_13_548')"><path d="M30.4 7.871H9.94v1.53H30.4v-1.53Zm0 5.705H13.004v1.53H30.4v-1.53Zm0 5.706H9.94v1.53H30.4v-1.53Zm0 5.706H13.004v1.53H30.4v-1.53Zm0 5.705H9.94v1.53H30.4v-1.53Zm0 5.707H13.004v1.53H30.4V36.4ZM58.485 7.871h-20.46v1.53h20.46v-1.53Zm-3.064 5.705H38.025v1.53h17.396v-1.53Zm3.064 5.706h-20.46v1.53h20.46v-1.53Zm-3.064 5.706H38.025v1.53h17.396v-1.53Zm3.064 5.705h-20.46v1.53h20.46v-1.53ZM55.421 36.4H38.025v1.53h17.396V36.4Z"/><path d="M65.872 6.13h-2.808V1.915a.766.766 0 0 0-.766-.765H39.4a5.925 5.925 0 0 0-5.188 3.012 5.926 5.926 0 0 0-5.189-3.012H6.128a.766.766 0 0 0-.766.765v4.213H2.553a.766.766 0 0 0-.766.765v41.071c0 .423.343.765.766.765h63.32a.766.766 0 0 0 .765-.765V6.895a.766.766 0 0 0-.766-.766ZM39.401 2.68h22.13v40.98H37.768c-1.054 0-2.107.444-2.788 1.02V7.088a4.395 4.395 0 0 1 4.42-4.407Zm-32.508 0h22.131c2.396 0 4.334 1.863 4.413 4.24.001.033.004.136.01.168v37.588c-.68-.572-1.722-1.015-2.778-1.015H6.893V2.68ZM3.32 7.66h2.043v36.766c0 .422.343.765.766.765h24.54c1.168 0 2.297.765 2.658 2.01H3.319V7.66ZM65.106 47.2H35.1a2.767 2.767 0 0 1 2.667-2.01h24.53a.766.766 0 0 0 .767-.764V7.66h2.042V47.2Z"/></g><defs><clipPath id="clip0_13_548"><path fill="#none" d="M0 .967h68.425v47.947H0z"/></clipPath></defs></symbol><symbol id="icon-mobile teaching" viewBox="0 0 48 48"><g clip-path="url('#clip0_13_519')"><path d="M44.32.779H21.193a2.732 2.732 0 0 0-2.73 2.727v9.563L1.28 20.272a.558.558 0 0 0-.071.995l2.19 1.31v13.96a2.523 2.523 0 0 0-1.96 2.455v1.345c0 .309.25.56.56.56h3.923a.56.56 0 0 0 .56-.56v-1.345a2.525 2.525 0 0 0-1.963-2.454V23.246l1.732 1.036c-.053.399-.006-.696-.024 6.499 0 2.365 6.064 3.632 12.234 3.704V45.38a2.728 2.728 0 0 0 2.729 2.723h23.127a2.73 2.73 0 0 0 2.728-2.724c0 .074-.003-2.308 0-41.872 0-1.483-1.228-2.727-2.726-2.727ZM5.363 38.992v.787H2.56v-.787c0-.774.627-1.405 1.398-1.405.776 0 1.406.63 1.406 1.405Zm38.957 7.99H21.193a1.61 1.61 0 0 1-1.335-.707 1.596 1.596 0 0 1-.276-.897v-3.776h26.342v3.777c0 .876-.73 1.603-1.604 1.603Zm1.604-6.498H19.58v-5.995c3.013-.035 12.243-.698 12.243-3.708-.004-4.52.008-6.353-.015-6.508l5.025-3.006a.56.56 0 0 0-.072-.995l-17.18-7.203V8.4h26.342v32.084ZM19.022 27.07c-3.104 0-9.08.4-11.675 2.094.016-5.18-.18-4.842.458-5.282 1.613-1.186 6.225-2.014 11.217-2.014 2.177 0 11.683.598 11.683 2.608v4.688c-2.62-1.709-8.566-2.094-11.683-2.094Zm.56-23.564a1.61 1.61 0 0 1 1.61-1.606h23.126c.888 0 1.606.73 1.606 1.606v3.777H19.583V3.506Zm-.56 10.54 16.288 6.83-4.036 2.412c-2.145-2.126-9.243-2.538-12.252-2.538-3.013 0-10.111.414-12.252 2.539l-4.038-2.414 16.29-6.829ZM7.347 30.781c0-.905 4.01-2.593 11.675-2.593 7.67 0 11.683 1.688 11.683 2.593s-4.013 2.593-11.683 2.593c-7.665 0-11.675-1.688-11.675-2.593Z"/><path d="M32.755 42.444c-1.02 0-1.85.83-1.85 1.849 0 1.02.83 1.85 1.85 1.85s1.85-.83 1.85-1.85-.83-1.849-1.85-1.849Zm0 2.58a.732.732 0 1 1 0-1.46.732.732 0 0 1 0 1.46ZM34.89 4.032h-4.27V5.15h4.27V4.032Z"/></g><defs><clipPath id="clip0_13_519"><path fill="#fff" d="M0 .967h48v46.948H0z"/></clipPath></defs></symbol><symbol id="icon-study program" viewBox="0 0 46 48"><g clip-path="url('#clip0_13_492')"><path d="m45.226 7.441-.001-.004a.42.42 0 0 0-.09-.135L37.925.093a.394.394 0 0 0-.06-.049c-.004-.003-.01-.005-.014-.009a.45.45 0 0 0-.054-.029L37.781 0a.437.437 0 0 0-.148-.03H5.868a.426.426 0 0 0-.426.426v43.966c0 .028.003.055.008.083l.01.035.015.045.02.038.019.035a.457.457 0 0 0 .049.06l.004.004 3.247 3.247a.426.426 0 0 0 .603 0l2.946-2.946 2.946 2.946a.424.424 0 0 0 .603 0l2.945-2.945 2.947 2.945a.426.426 0 0 0 .602 0l2.946-2.945 2.945 2.945a.425.425 0 0 0 .602 0l2.948-2.946 2.945 2.946a.423.423 0 0 0 .602 0l2.946-2.945 2.947 2.945a.425.425 0 0 0 .602 0l3.247-3.247.017-.02c.011-.014.025-.028.035-.044.01-.014.017-.03.024-.045.006-.01.011-.018.015-.028.009-.02.013-.04.018-.06l.007-.02a.441.441 0 0 0 .008-.086V7.604a.45.45 0 0 0-.034-.163ZM38.05 1.424l5.754 5.753H38.05V1.424Zm6.356 42.76-2.82 2.82-2.947-2.946a.426.426 0 0 0-.602 0l-2.945 2.946-2.945-2.946a.427.427 0 0 0-.603 0l-2.947 2.946-2.945-2.944v-.002a.425.425 0 0 0-.603 0l-2.945 2.946-2.947-2.946a.427.427 0 0 0-.603 0l-2.945 2.946-2.946-2.946a.427.427 0 0 0-.602 0l-2.947 2.946-2.82-2.82V.82h30.904v6.783c0 .235.191.426.426.426h6.782v36.154Z"/><path d="M9.47 4.851h13.955a.426.426 0 0 0 0-.852H9.471a.426.426 0 1 0 0 .852Zm0 2.635h22.38a.426.426 0 0 0 0-.852H9.47a.426.426 0 1 0 0 .852Zm-.426 2.366V23.65c0 .235.19.426.427.426h31.758a.426.426 0 0 0 .426-.426V9.852a.426.426 0 0 0-.426-.426H9.471a.426.426 0 0 0-.427.426Zm9.418.426h22.34v3.668h-22.34v-3.668Zm0 4.52h22.34v3.666h-22.34v-3.666Zm0 4.518h22.34v3.908h-22.34v-3.908Zm-8.565-9.038h7.713v3.668H9.897v-3.668Zm0 4.52h7.713v3.666H9.897v-3.666Zm0 4.518h7.713v3.908H9.897v-3.908Zm31.332 6.678H9.471a.426.426 0 0 0-.427.426v13.797a.426.426 0 1 0 .852 0v-4.333h7.714v4.333a.426.426 0 0 0 .852 0v-4.333h22.34v4.333a.426.426 0 0 0 .852 0V26.42a.424.424 0 0 0-.425-.426ZM17.61 35.03H9.897v-3.665h7.713v3.665Zm0-4.518H9.897v-3.666h7.713v3.666Zm23.192 4.518h-22.34v-3.665h22.34v3.665Zm0-4.518h-22.34v-3.666h22.34v3.666ZM3.421-.032a.426.426 0 0 0-.426.426V44.36a.426.426 0 0 0 .853 0V.394a.426.426 0 0 0-.427-.426Zm-2.343 0A.426.426 0 0 0 .65.394V44.36a.426.426 0 0 0 .852 0V.394a.426.426 0 0 0-.425-.426Z"/></g><defs><clipPath id="clip0_13_492"><path fill="#fff" d="M0 0h45.391v48H0z"/></clipPath></defs></symbol></svg>