<svg width="18" height="14" fill="none" xmlns="http://www.w3.org/2000/svg"><path d="M15.546.796c-.628.281-1.23.624-1.805 1.007-1.155.76-2.211 1.665-3.202 2.63a35.71 35.71 0 0 0-2.785 3.08c-.218.27-1.194 1.47-1.194 1.47L2.5 2.897.967 7.147l5.49 6.548c.534-1.08 1.047-2.145 1.55-3.071.125-.236.256-.457.382-.682 0 0 .644-1.133.813-1.418a34.248 34.248 0 0 1 2.217-3.309c.807-1.054 1.685-2.06 2.68-2.945a11.976 11.976 0 0 1 1.587-1.215 8.849 8.849 0 0 1 1.803-.9 8.999 8.999 0 0 0-1.943.641Z" fill="#FF6B09"/></svg>